<?xml version="1.0" standalone="no"?>
<!DOCTYPE svg PUBLIC "-//W3C//DTD SVG 20010904//EN"
 "http://www.w3.org/TR/2001/REC-SVG-20010904/DTD/svg10.dtd">
<svg version="1.0" xmlns="http://www.w3.org/2000/svg"
 width="32" height="32" viewBox="0 0 1200.000000 1273.000000"
 preserveAspectRatio="xMidYMid meet">

<g transform="translate(0.000000,1273.000000) scale(0.100000,-0.100000)"
fill="#000000" stroke="none">
<path d="M4550 11465 c-35 -8 -102 -33 -149 -55 -115 -55 -232 -171 -284 -280
-56 -118 -70 -186 -65 -320 4 -90 10 -131 31 -188 64 -181 212 -330 391 -392
306 -105 642 29 785 312 100 196 93 435 -16 616 -120 198 -305 308 -533 318
-62 2 -118 -1 -160 -11z"/>
<path d="M5562 11413 c-63 -31 -62 -20 -62 -584 l0 -511 34 -34 34 -34 511 0
c566 0 554 -1 585 64 14 30 16 91 16 523 0 546 1 540 -70 575 -32 16 -78 18
-525 18 -432 0 -494 -2 -523 -17z"/>
<path d="M6970 11412 c-72 -35 -71 -27 -68 -587 3 -459 4 -502 21 -526 9 -14
29 -31 43 -37 18 -9 171 -12 535 -12 l511 0 34 34 34 34 0 511 c0 566 1 554
-64 585 -30 14 -91 16 -523 16 -445 0 -491 -2 -523 -18z"/>
<path d="M4152 10003 c-63 -31 -62 -21 -62 -573 0 -428 2 -505 15 -530 31 -61
25 -60 575 -60 455 0 505 2 531 17 60 36 60 32 57 587 l-3 506 -33 32 -32 33
-508 2 c-453 3 -511 1 -540 -14z"/>
<path d="M5553 10000 c-17 -10 -37 -28 -42 -39 -7 -13 -11 -190 -11 -535 l0
-516 29 -32 29 -33 519 -3 520 -3 28 22 c55 44 55 47 55 569 0 531 0 532 -62
570 -32 19 -49 20 -533 20 -477 0 -501 -1 -532 -20z"/>
<path d="M4148 8594 c-58 -31 -58 -27 -58 -576 0 -481 1 -504 20 -535 12 -21
32 -36 57 -43 26 -8 192 -10 535 -8 l498 3 32 33 33 32 3 506 c3 555 3 551
-57 587 -26 15 -76 17 -533 17 -425 -1 -507 -3 -530 -16z"/>
<path d="M5564 8600 c-12 -4 -31 -21 -43 -36 -21 -26 -21 -31 -21 -543 0 -567
-2 -544 60 -576 25 -13 105 -15 527 -15 482 0 499 1 531 20 62 38 62 39 62
570 0 521 0 525 -55 568 -28 22 -29 22 -534 21 -278 0 -516 -4 -527 -9z"/>
<path d="M6955 8589 c-55 -44 -55 -47 -55 -569 0 -531 0 -532 62 -570 32 -19
49 -20 531 -20 422 0 502 2 527 15 62 32 60 9 60 577 l0 518 -29 32 -29 33
-519 3 -520 3 -28 -22z"/>
<path d="M4128 7171 l-33 -29 -3 -521 -3 -521 35 -37 34 -38 501 -3 c554 -3
552 -3 591 60 19 32 20 49 20 526 0 541 -1 546 -59 576 -26 14 -97 16 -540 16
l-511 0 -32 -29z"/>
<path d="M5534 7166 l-34 -34 0 -511 c0 -566 -1 -554 64 -585 30 -14 91 -16
523 -16 546 0 540 -1 576 70 16 32 17 74 15 535 -3 459 -4 502 -21 526 -9 14
-29 31 -43 37 -18 9 -171 12 -535 12 l-511 0 -34 -34z"/>
<path d="M9665 5220 c-242 -30 -402 -174 -450 -405 -19 -90 -19 -290 0 -378
41 -194 162 -334 334 -387 94 -30 235 -36 341 -16 275 52 420 254 420 584 0
266 -88 449 -259 541 -102 54 -254 78 -386 61z m222 -232 c49 -23 99 -76 124
-133 51 -116 50 -344 -3 -467 -24 -57 -90 -120 -144 -139 -50 -17 -168 -17
-218 0 -128 44 -197 202 -183 421 11 164 55 258 145 308 78 44 198 48 279 10z"/>
<path d="M3910 5207 c-107 -31 -186 -93 -223 -175 -32 -72 -35 -182 -6 -257
36 -95 104 -156 276 -244 166 -85 203 -118 203 -184 0 -55 -19 -81 -75 -103
-82 -31 -244 -4 -417 71 -17 7 -18 -2 -18 -109 l0 -117 35 -15 c68 -28 151
-45 250 -50 288 -17 475 116 475 335 0 160 -68 242 -298 360 -175 90 -202 114
-202 180 0 39 5 53 27 75 14 14 37 29 50 32 49 13 178 -3 256 -30 43 -15 80
-26 82 -24 8 7 75 173 75 184 0 6 -44 26 -97 44 -86 29 -113 34 -223 37 -82 2
-141 -2 -170 -10z"/>
<path d="M1840 4625 l0 -585 125 0 125 0 0 585 0 585 -125 0 -125 0 0 -585z"/>
<path d="M2390 4625 l0 -585 111 0 111 0 -3 435 c-2 239 -4 435 -3 435 0 0
113 -196 250 -435 l249 -434 163 -1 162 0 0 585 0 585 -116 0 -116 0 4 -435 4
-435 -33 57 c-18 32 -131 227 -251 433 l-218 375 -157 3 -157 3 0 -586z"/>
<path d="M4507 5203 c-4 -3 -7 -51 -7 -105 l0 -98 160 0 160 0 0 -480 0 -480
125 0 125 0 0 480 0 480 160 0 160 0 0 105 0 105 -438 0 c-241 0 -442 -3 -445
-7z"/>
<path d="M5570 4625 l0 -585 125 0 125 0 0 585 0 585 -125 0 -125 0 0 -585z"/>
<path d="M5997 5203 c-4 -3 -7 -51 -7 -105 l0 -98 160 0 160 0 0 -480 0 -480
125 0 125 0 0 480 0 480 160 0 160 0 0 105 0 105 -438 0 c-241 0 -442 -3 -445
-7z"/>
<path d="M7050 4811 c0 -226 4 -421 10 -451 40 -212 215 -340 465 -340 210 0
373 87 448 239 l32 66 3 443 3 443 -123 -3 -123 -3 -5 -415 c-5 -405 -6 -416
-27 -457 -30 -56 -72 -83 -146 -95 -124 -21 -223 22 -263 115 -17 38 -19 80
-22 450 l-3 407 -125 0 -124 0 0 -399z"/>
<path d="M8190 5105 l0 -105 155 0 155 0 0 -480 0 -480 130 0 130 0 0 480 0
480 155 0 155 0 0 105 0 105 -440 0 -440 0 0 -105z"/>
<path d="M2655 3798 c-3 -7 -4 -272 -3 -588 l3 -575 123 -3 122 -3 0 236 0
235 200 0 200 0 0 100 0 100 -200 0 -200 0 0 150 0 150 215 0 216 0 -3 103 -3
102 -333 3 c-261 2 -334 0 -337 -10z"/>
<path d="M3560 3220 l0 -590 338 2 337 3 3 103 3 102 -216 0 -215 0 0 150 0
150 200 0 201 0 -3 103 -3 102 -197 3 -198 2 0 125 0 125 215 0 216 0 -3 103
-3 102 -337 3 -338 2 0 -590z"/>
<path d="M4475 3798 c-3 -7 -4 -272 -3 -588 l3 -575 225 1 c258 1 337 13 460
71 195 93 301 301 286 563 -17 312 -195 497 -511 530 -138 15 -455 13 -460 -2z
m488 -213 c134 -35 202 -128 222 -305 9 -71 -9 -198 -36 -261 -29 -66 -105
-134 -172 -154 -29 -9 -96 -19 -149 -22 l-98 -6 0 381 0 382 88 0 c48 0 114
-7 145 -15z"/>
<path d="M5690 3220 l0 -590 335 0 335 0 0 105 0 105 -210 0 -210 0 0 150 0
150 195 0 195 0 0 105 0 105 -195 0 -195 0 0 125 0 125 210 0 210 0 0 105 0
105 -335 0 -335 0 0 -590z"/>
<path d="M6605 3799 c-3 -8 -4 -273 -3 -589 l3 -575 125 0 125 0 3 223 2 222
63 0 62 0 119 -192 c66 -106 130 -208 143 -225 l24 -33 265 0 264 0 10 23 c5
12 25 75 45 140 l36 117 213 0 213 0 12 -42 c7 -24 26 -87 43 -141 l30 -98
131 3 c111 3 132 5 129 18 -2 8 -94 273 -205 588 l-202 572 -154 -2 -153 -3
-202 -572 c-110 -314 -204 -574 -207 -578 -4 -3 -82 105 -174 240 -92 136
-165 248 -163 250 1 1 17 9 33 18 53 27 110 83 140 138 25 46 30 68 33 144 3
74 0 100 -17 147 -38 98 -112 157 -246 193 -85 23 -532 35 -540 14z m1575
-433 c38 -125 70 -232 70 -237 0 -5 -65 -9 -145 -9 -87 0 -145 4 -145 10 0 5
32 113 70 241 39 127 70 234 71 238 1 9 4 1 79 -243z m-1097 206 c53 -24 77
-63 77 -128 0 -99 -62 -145 -207 -152 l-93 -4 0 157 0 158 88 -5 c58 -4 104
-12 135 -26z"/>
<path d="M8820 3220 l0 -590 363 2 362 3 3 103 3 102 -241 0 -240 0 0 485 0
485 -125 0 -125 0 0 -590z"/>
<path d="M8625 2120 c-42 -46 -11 -130 47 -130 39 0 68 32 68 75 0 66 -74 101
-115 55z"/>
<path d="M2066 2115 c-114 -32 -178 -113 -177 -223 0 -135 60 -200 256 -277
122 -48 161 -76 176 -125 24 -80 -17 -147 -105 -171 -56 -15 -196 -5 -276 20
-36 12 -66 21 -67 21 -2 0 -3 -24 -3 -54 0 -33 5 -58 14 -65 50 -41 299 -51
398 -16 173 62 226 273 99 396 -38 37 -72 55 -170 94 -68 28 -138 63 -158 80
-32 27 -37 38 -41 88 -4 52 -2 58 25 86 56 56 160 63 294 21 l60 -18 13 32
c32 76 33 73 -41 96 -87 27 -230 35 -297 15z"/>
<path d="M5780 2113 c-120 -33 -202 -98 -255 -204 -71 -140 -71 -360 0 -506
34 -67 119 -145 193 -175 50 -19 74 -22 187 -22 84 1 146 6 175 15 l45 15 3
53 3 54 -33 -6 c-181 -33 -220 -34 -299 -11 -72 21 -148 97 -175 175 -26 74
-26 243 -1 316 27 78 77 137 144 170 51 24 69 28 143 27 60 -1 103 -7 144 -22
33 -12 60 -21 62 -19 8 9 44 88 44 96 0 19 -133 52 -225 57 -66 3 -107 0 -155
-13z"/>
<path d="M4082 1976 c-22 -73 -22 -73 -72 -94 -45 -19 -50 -24 -50 -51 0 -30
1 -31 50 -31 l50 0 0 -227 c0 -200 3 -233 19 -269 35 -76 103 -110 208 -101
77 6 93 18 93 67 l0 39 -76 -2 c-71 -2 -77 0 -100 26 -24 28 -24 30 -24 248
l0 219 95 0 95 0 0 50 0 50 -95 0 -95 0 0 75 0 75 -38 0 -39 0 -21 -74z"/>
<path d="M7027 2043 c-2 -5 -12 -36 -22 -71 -17 -59 -22 -65 -67 -88 -41 -21
-48 -29 -48 -54 0 -29 2 -30 44 -30 l44 0 4 -232 c3 -218 5 -236 25 -274 12
-23 38 -52 58 -64 43 -27 134 -37 193 -21 42 12 42 12 42 60 l0 48 -54 -10
c-39 -7 -62 -7 -83 2 -54 22 -58 37 -61 274 l-3 217 101 0 101 0 -3 48 -3 47
-97 3 -98 3 0 74 0 75 -34 0 c-19 0 -37 -3 -39 -7z"/>
<path d="M2783 1900 c-48 -9 -163 -47 -163 -55 0 -2 9 -24 20 -49 l19 -46 48
21 c60 27 171 36 213 19 39 -16 60 -56 60 -113 l0 -44 -98 -7 c-151 -10 -230
-36 -284 -93 -35 -37 -48 -73 -48 -134 0 -64 18 -107 63 -146 84 -73 243 -70
338 7 l38 30 11 -40 c11 -39 12 -40 55 -40 l45 0 0 258 c0 150 -5 273 -11 295
-29 107 -155 163 -306 137z m197 -410 c0 -93 -48 -158 -133 -181 -118 -32
-205 44 -164 143 19 45 69 69 166 78 142 14 131 17 131 -40z"/>
<path d="M3547 1900 c-48 -12 -109 -44 -128 -66 -13 -15 -15 -14 -25 22 -10
38 -12 39 -57 42 l-47 3 0 -345 0 -346 59 0 60 0 3 238 c3 216 5 240 23 271
33 56 67 75 144 79 75 5 121 -12 143 -51 9 -15 14 -96 18 -277 l5 -255 58 -3
57 -3 0 259 c0 278 -6 319 -53 371 -47 51 -176 82 -260 61z"/>
<path d="M4678 1900 c-65 -11 -144 -39 -156 -53 -6 -8 -3 -27 9 -54 l18 -43
48 21 c60 27 171 36 213 19 39 -16 60 -56 60 -113 l0 -44 -98 -7 c-151 -10
-230 -36 -284 -93 -70 -74 -64 -208 13 -278 43 -38 92 -55 164 -55 70 0 117
15 170 56 47 35 48 35 59 -18 6 -26 10 -28 51 -28 l45 0 0 256 c0 286 -6 330
-55 378 -49 49 -160 73 -257 56z m192 -412 c0 -114 -70 -182 -187 -183 -54 0
-66 3 -89 26 -19 20 -27 38 -28 67 -2 82 47 119 174 132 141 14 130 17 130
-42z"/>
<path d="M6473 1899 c-72 -12 -165 -49 -160 -62 2 -7 10 -29 18 -50 10 -28 17
-36 29 -31 64 29 124 43 177 44 55 0 67 -4 94 -28 27 -24 33 -37 37 -84 l4
-55 -100 -7 c-237 -16 -332 -80 -332 -223 0 -81 31 -140 88 -172 91 -49 246
-35 307 29 16 16 32 30 36 30 4 0 11 -17 16 -37 8 -37 10 -38 56 -41 l47 -3 0
245 c0 268 -8 330 -48 378 -49 58 -160 86 -269 67z m194 -419 c-3 -33 -14 -75
-24 -92 -39 -68 -135 -103 -214 -79 -87 26 -92 153 -8 197 27 13 126 28 223
33 l29 1 -6 -60z"/>
<path d="M7603 1899 c-56 -9 -163 -47 -163 -57 0 -3 7 -26 17 -50 12 -33 20
-41 32 -36 105 46 217 58 260 28 28 -20 51 -72 51 -117 l0 -34 -100 -7 c-238
-16 -334 -82 -333 -227 1 -116 72 -186 197 -196 81 -7 162 16 201 57 16 16 32
30 36 30 4 0 11 -17 16 -37 8 -37 10 -38 53 -38 l45 0 3 240 c3 265 -5 328
-46 377 -49 58 -160 86 -269 67z m193 -421 c-7 -72 -29 -114 -75 -145 -65 -44
-182 -39 -216 10 -19 28 -19 96 1 125 30 44 103 63 268 71 l29 1 -7 -62z"/>
<path d="M8357 1898 c-20 -6 -60 -30 -87 -55 -53 -48 -57 -47 -62 17 -3 35 -3
35 -53 35 l-50 0 0 -340 0 -340 60 0 60 0 5 225 c5 247 9 262 70 313 39 33 92
48 146 40 47 -6 44 -10 58 73 5 30 3 32 -32 38 -47 7 -68 6 -115 -6z"/>
<path d="M9185 1901 c-53 -15 -80 -28 -113 -56 l-31 -26 -6 28 c-12 52 -13 53
-60 53 l-45 0 0 -345 0 -346 58 3 57 3 5 235 c5 258 10 277 73 324 37 27 151
35 194 12 58 -29 63 -57 63 -330 l0 -246 60 0 60 0 0 253 c0 138 -5 268 -10
288 -26 93 -97 145 -210 153 -36 3 -78 1 -95 -3z"/>
<path d="M9878 1900 c-65 -11 -144 -39 -156 -53 -6 -8 -3 -27 9 -54 l18 -43
48 21 c60 27 171 36 213 19 39 -16 60 -56 60 -113 l0 -44 -98 -7 c-151 -10
-230 -36 -284 -93 -70 -74 -65 -207 11 -276 86 -77 244 -76 342 3 41 32 41 32
53 -22 6 -26 10 -28 52 -28 l45 0 -3 278 c-3 301 -5 310 -64 365 -45 42 -157
63 -246 47z m192 -410 c0 -93 -48 -158 -133 -181 -120 -32 -208 47 -162 144
22 46 68 68 164 77 142 14 131 17 131 -40z"/>
<path d="M8617 1893 c-4 -3 -7 -159 -7 -345 l0 -338 60 0 60 0 0 345 0 345
-53 0 c-30 0 -57 -3 -60 -7z"/>
</g>
</svg>
